<?xml version="1.0" encoding="UTF-8"?>
<svg id="Ebene_1" data-name="Ebene 1" xmlns="http://www.w3.org/2000/svg" viewBox="0 0 449.12 105.96">
  <defs>
    <style>
      .cls-1 {
        fill: #1d1d1b;
      }

      .cls-1, .cls-2 {
        stroke-width: 0px;
      }

      .cls-2 {
        fill: #fab714;
      }
    </style>
  </defs>
  <g>
    <path class="cls-1" d="M98.05,103.25v-5.52l15.48-28.68h-15.48v-5.82h23.52v5.4l-15.54,28.74h15.96v5.88h-23.94Z"/>
    <path class="cls-1" d="M129.91,63.23h6.66v26.64c0,5.34,2.64,8.22,7.26,8.22s7.26-2.88,7.26-8.22v-26.64h6.66v26.58c0,9.06-5.28,14.16-13.92,14.16s-13.92-5.1-13.92-14.16v-26.58ZM135.07,55.91c0-1.86,1.5-3.36,3.36-3.36s3.36,1.5,3.36,3.36-1.5,3.36-3.36,3.36-3.36-1.5-3.36-3.36ZM145.93,55.91c0-1.86,1.56-3.36,3.36-3.36s3.42,1.5,3.42,3.36-1.56,3.36-3.42,3.36-3.36-1.5-3.36-3.36Z"/>
    <path class="cls-1" d="M185.89,103.25l-6.78-15.12h-4.92v15.12h-6.66v-40.02h13.8c6.9,0,11.64,4.98,11.64,12.36s-3.84,10.44-7.38,11.4l7.74,16.26h-7.44ZM180.37,69.05h-6.18v13.2h6.18c3.54,0,5.82-2.64,5.82-6.6s-2.28-6.6-5.82-6.6Z"/>
    <path class="cls-1" d="M201.91,103.25v-40.02h6.66v40.02h-6.66Z"/>
    <path class="cls-1" d="M216.55,83.27c0-12.06,6.3-20.7,16.14-20.7,7.14,0,10.74,4.38,12.84,8.82l-5.52,2.46c-1.38-3.18-3.84-5.4-7.32-5.4-5.7,0-9.36,6.24-9.36,14.82s3.66,14.76,9.36,14.76c3.66,0,6.12-2.52,7.38-5.88l5.52,2.46c-2.04,4.68-5.64,9.36-12.9,9.36-9.84,0-16.14-8.7-16.14-20.7Z"/>
    <path class="cls-1" d="M273.37,103.25v-17.64h-14.64v17.64h-6.66v-40.02h6.66v16.5h14.64v-16.5h6.66v40.02h-6.66Z"/>
  </g>
  <g>
    <path class="cls-2" d="M56.45,18.61c0,5.65-4.55,10.23-10.17,10.23-5.61.01-10.17-4.57-10.18-10.2-.01-5.66,4.54-10.24,10.17-10.24,5.61,0,10.17,4.56,10.18,10.21Z"/>
    <path class="cls-2" d="M12.31,20.51C11.67,9.12,19.4,1.49,32.85,0c-9.01,5.45-12.76,14.33-9.71,22.15,3.58,9.17,12.39,14.02,34.46,22.45,25.65,9.8,29.22,22.54,19.04,38.25,1.85-13.66-7.8-21.15-26.02-28.44C28.98,45.75,13.21,36.47,12.31,20.51Z"/>
    <path class="cls-2" d="M8.19,16.95c-6.69,17.9,10.37,30.75,42.02,44.4,28.98,12.5,23.6,29.71,12.78,35.63,7.67-13.19-8.22-21.88-28.11-30.78C8.38,54.36-9.08,37.07,8.19,16.95Z"/>
    <path class="cls-2" d="M.54,46.23c4.75,11.64,15.56,19.34,40.32,30.04,28.07,12.13,16.38,28.87,2.77,29.7,7.28-5.45,5.65-13.54-2.64-18.49-7.51-4.5-23.35-10.11-31.85-17.58C3.85,65.23-1.78,57.76.54,46.23Z"/>
  </g>
  <g>
    <path class="cls-1" d="M99.08,33.43c2.16,2.46,5.58,4.32,9.54,4.32s6.24-2.46,6.24-5.28c0-3.6-3.36-5.16-7.2-6.9-4.98-2.16-10.74-4.62-10.74-12.12,0-6.24,4.86-11.16,12.42-11.16,4.68,0,8.64,1.56,11.52,4.32l-3.24,5.04c-2.34-2.34-5.34-3.42-8.46-3.42s-5.46,1.92-5.46,4.86,3.18,4.5,6.9,6.18c5.1,2.28,11.04,4.92,11.04,12.66,0,6.54-4.44,11.76-13.02,11.76-5.7,0-9.96-1.98-12.9-5.1l3.36-5.16Z"/>
    <path class="cls-1" d="M152.84,42.97l-5.76-28.74-5.7,28.74h-6.96L125.36,2.95h7.14l5.76,29.88,6.18-29.88h5.34l6.24,29.88,5.7-29.88h7.14l-9.06,40.02h-6.96Z"/>
    <path class="cls-1" d="M175.4,42.97V2.95h6.66v40.02h-6.66Z"/>
    <path class="cls-1" d="M192.38,33.43c2.16,2.46,5.58,4.32,9.54,4.32s6.24-2.46,6.24-5.28c0-3.6-3.36-5.16-7.2-6.9-4.98-2.16-10.74-4.62-10.74-12.12,0-6.24,4.86-11.16,12.42-11.16,4.68,0,8.64,1.56,11.52,4.32l-3.24,5.04c-2.34-2.34-5.34-3.42-8.46-3.42s-5.46,1.92-5.46,4.86,3.18,4.5,6.9,6.18c5.1,2.28,11.04,4.92,11.04,12.66,0,6.54-4.44,11.76-13.02,11.76-5.7,0-9.96-1.98-12.9-5.1l3.36-5.16Z"/>
    <path class="cls-1" d="M222.74,33.43c2.16,2.46,5.58,4.32,9.54,4.32s6.24-2.46,6.24-5.28c0-3.6-3.36-5.16-7.2-6.9-4.98-2.16-10.74-4.62-10.74-12.12,0-6.24,4.86-11.16,12.42-11.16,4.68,0,8.64,1.56,11.52,4.32l-3.24,5.04c-2.34-2.34-5.34-3.42-8.46-3.42s-5.46,1.92-5.46,4.86,3.18,4.5,6.9,6.18c5.1,2.28,11.04,4.92,11.04,12.66,0,6.54-4.44,11.76-13.02,11.76-5.7,0-9.96-1.98-12.9-5.1l3.36-5.16Z"/>
    <path class="cls-1" d="M264.68,22.99c0-12.06,6.3-20.7,16.14-20.7,7.14,0,10.74,4.38,12.84,8.82l-5.52,2.46c-1.38-3.18-3.84-5.4-7.32-5.4-5.7,0-9.36,6.24-9.36,14.82s3.66,14.76,9.36,14.76c3.66,0,6.12-2.52,7.38-5.88l5.52,2.46c-2.04,4.68-5.64,9.36-12.9,9.36-9.84,0-16.14-8.7-16.14-20.7Z"/>
    <path class="cls-1" d="M320.96,42.97l-2.16-7.92h-13.74l-2.16,7.92h-6.9l11.94-40.02h7.98l11.94,40.02h-6.9ZM311.96,8.89l-5.52,20.28h11.04l-5.52-20.28Z"/>
    <path class="cls-1" d="M333.74,33.43c2.16,2.46,5.58,4.32,9.54,4.32s6.24-2.46,6.24-5.28c0-3.6-3.36-5.16-7.2-6.9-4.98-2.16-10.74-4.62-10.74-12.12,0-6.24,4.86-11.16,12.42-11.16,4.68,0,8.64,1.56,11.52,4.32l-3.24,5.04c-2.34-2.34-5.34-3.42-8.46-3.42s-5.46,1.92-5.46,4.86,3.18,4.5,6.9,6.18c5.1,2.28,11.04,4.92,11.04,12.66,0,6.54-4.44,11.76-13.02,11.76-5.7,0-9.96-1.98-12.9-5.1l3.36-5.16Z"/>
    <path class="cls-1" d="M363.98,42.97V2.95h6.66v40.02h-6.66Z"/>
    <path class="cls-1" d="M403.1,42.97l-14.82-27.66v27.66h-6.66V2.95h6.72l14.46,26.64V2.95h6.66v40.02h-6.36Z"/>
    <path class="cls-1" d="M433.1,2.29c10.14,0,16.02,8.94,16.02,20.7s-5.88,20.7-16.02,20.7-16.02-8.94-16.02-20.7,5.88-20.7,16.02-20.7ZM433.1,8.17c-6,0-9.24,6.42-9.24,14.82s3.24,14.76,9.24,14.76,9.24-6.48,9.24-14.76-3.3-14.82-9.24-14.82Z"/>
  </g>
</svg>